<?xml version="1.0" encoding="UTF-8" standalone="no"?>
<svg
   xmlns:dc="http://purl.org/dc/elements/1.1/"
   xmlns:cc="http://creativecommons.org/ns#"
   xmlns:rdf="http://www.w3.org/1999/02/22-rdf-syntax-ns#"
   xmlns:svg="http://www.w3.org/2000/svg"
   xmlns="http://www.w3.org/2000/svg"
   xmlns:sodipodi="http://sodipodi.sourceforge.net/DTD/sodipodi-0.dtd"
   xmlns:inkscape="http://www.inkscape.org/namespaces/inkscape"
   version="1.1"
   width="75"
   height="75"
   id="svg3746"
   inkscape:version="0.48.3.1 r9886"
   sodipodi:docname="pl.svg">
  <metadata
     id="metadata3754">
    <rdf:RDF>
      <cc:Work
         rdf:about="">
        <dc:format>image/svg+xml</dc:format>
        <dc:type
           rdf:resource="http://purl.org/dc/dcmitype/StillImage" />
      </cc:Work>
    </rdf:RDF>
  </metadata>
  <defs
     id="defs3752" />
  <sodipodi:namedview
     pagecolor="#ffffff"
     bordercolor="#666666"
     borderopacity="1"
     objecttolerance="10"
     gridtolerance="10"
     guidetolerance="10"
     inkscape:pageopacity="0"
     inkscape:pageshadow="2"
     inkscape:window-width="733"
     inkscape:window-height="480"
     id="namedview3750"
     showgrid="false"
     inkscape:zoom="5.2444444"
     inkscape:cx="31.461864"
     inkscape:cy="22.5"
     inkscape:window-x="0"
     inkscape:window-y="27"
     inkscape:window-maximized="0"
     inkscape:current-layer="svg3746" />
  <path
     d="m 37.5,12.0325 c -3.6907,0 -6.68,2.9893 -6.68,6.68 0,1.4863 0.4843,2.8557 1.3026,3.9746 -3.2565,1.8704 -5.4776,5.3607 -5.4776,9.3854 0,3.3901 1.5698,6.4128 4.0247,8.4001 -5.01,1.7702 -12.3747,9.2685 -12.3747,22.4949 l 38.41,0 c 0,-13.2264 -7.3647,-20.7247 -12.3747,-22.4949 2.4549,-1.9873 4.0247,-5.01 4.0247,-8.4001 0,-4.0247 -2.2211,-7.515 -5.4776,-9.3854 0.8183,-1.1189 1.3026,-2.4883 1.3026,-3.9746 0,-3.6907 -2.9893,-6.68 -6.68,-6.68 z"
     style="fill:#ffffff;fill-opacity:1;fill-rule:nonzero;stroke:#000000;stroke-width:2.50500011;stroke-linecap:round;stroke-linejoin:miter;stroke-miterlimit:4;stroke-opacity:1;stroke-dasharray:none"
     id="path3748"
     inkscape:connector-curvature="0" />
</svg>
