<?xml version="1.0" encoding="UTF-8" standalone="no"?>
<svg
   xmlns:dc="http://purl.org/dc/elements/1.1/"
   xmlns:cc="http://creativecommons.org/ns#"
   xmlns:rdf="http://www.w3.org/1999/02/22-rdf-syntax-ns#"
   xmlns:svg="http://www.w3.org/2000/svg"
   xmlns="http://www.w3.org/2000/svg"
   xmlns:sodipodi="http://sodipodi.sourceforge.net/DTD/sodipodi-0.dtd"
   xmlns:inkscape="http://www.inkscape.org/namespaces/inkscape"
   version="1.1"
   width="75"
   height="75"
   id="svg4088"
   inkscape:version="0.48.3.1 r9886"
   sodipodi:docname="rl.svg">
  <metadata
     id="metadata4110">
    <rdf:RDF>
      <cc:Work
         rdf:about="">
        <dc:format>image/svg+xml</dc:format>
        <dc:type
           rdf:resource="http://purl.org/dc/dcmitype/StillImage" />
      </cc:Work>
    </rdf:RDF>
  </metadata>
  <defs
     id="defs4108" />
  <sodipodi:namedview
     pagecolor="#ffffff"
     bordercolor="#666666"
     borderopacity="1"
     objecttolerance="10"
     gridtolerance="10"
     guidetolerance="10"
     inkscape:pageopacity="0"
     inkscape:pageshadow="2"
     inkscape:window-width="974"
     inkscape:window-height="694"
     id="namedview4106"
     showgrid="false"
     inkscape:zoom="5.2444444"
     inkscape:cx="-9.3432203"
     inkscape:cy="22.5"
     inkscape:window-x="0"
     inkscape:window-y="27"
     inkscape:window-maximized="0"
     inkscape:current-layer="svg4088" />
  <g
     style="fill:#ffffff;fill-opacity:1;fill-rule:evenodd;stroke:#000000;stroke-width:1.5;stroke-linecap:round;stroke-linejoin:round;stroke-miterlimit:4;stroke-opacity:1;stroke-dasharray:none"
     id="g4090"
     transform="matrix(1.67,0,0,1.67,-0.075,-2.58)">
    <path
       d="m 9,39 27,0 0,-3 -27,0 0,3 z"
       style="stroke-linecap:butt"
       id="path4092"
       inkscape:connector-curvature="0" />
    <path
       d="m 12,36 0,-4 21,0 0,4 -21,0 z"
       style="stroke-linecap:butt"
       id="path4094"
       inkscape:connector-curvature="0" />
    <path
       d="m 11,14 0,-5 4,0 0,2 5,0 0,-2 5,0 0,2 5,0 0,-2 4,0 0,5"
       style="stroke-linecap:butt"
       id="path4096"
       inkscape:connector-curvature="0" />
    <path
       d="m 34,14 -3,3 -17,0 -3,-3"
       id="path4098"
       inkscape:connector-curvature="0" />
    <path
       d="m 31,17 0,12.5 -17,0 0,-12.5"
       style="stroke-linecap:butt;stroke-linejoin:miter"
       id="path4100"
       inkscape:connector-curvature="0" />
    <path
       d="m 31,29.5 1.5,2.5 -20,0 1.5,-2.5"
       id="path4102"
       inkscape:connector-curvature="0" />
    <path
       d="m 11,14 23,0"
       style="fill:none;stroke:#000000;stroke-linejoin:miter"
       id="path4104"
       inkscape:connector-curvature="0" />
  </g>
</svg>
