<?xml version="1.0" encoding="UTF-8" standalone="no"?>
<svg
   xmlns:dc="http://purl.org/dc/elements/1.1/"
   xmlns:cc="http://creativecommons.org/ns#"
   xmlns:rdf="http://www.w3.org/1999/02/22-rdf-syntax-ns#"
   xmlns:svg="http://www.w3.org/2000/svg"
   xmlns="http://www.w3.org/2000/svg"
   xmlns:sodipodi="http://sodipodi.sourceforge.net/DTD/sodipodi-0.dtd"
   xmlns:inkscape="http://www.inkscape.org/namespaces/inkscape"
   version="1.1"
   width="75"
   height="75"
   id="svg4003"
   inkscape:version="0.48.3.1 r9886"
   sodipodi:docname="rd.svg">
  <metadata
     id="metadata4033">
    <rdf:RDF>
      <cc:Work
         rdf:about="">
        <dc:format>image/svg+xml</dc:format>
        <dc:type
           rdf:resource="http://purl.org/dc/dcmitype/StillImage" />
      </cc:Work>
    </rdf:RDF>
  </metadata>
  <defs
     id="defs4031" />
  <sodipodi:namedview
     pagecolor="#ffffff"
     bordercolor="#666666"
     borderopacity="1"
     objecttolerance="10"
     gridtolerance="10"
     guidetolerance="10"
     inkscape:pageopacity="0"
     inkscape:pageshadow="2"
     inkscape:window-width="857"
     inkscape:window-height="651"
     id="namedview4029"
     showgrid="false"
     inkscape:zoom="5.2444444"
     inkscape:cx="-0.28601695"
     inkscape:cy="22.5"
     inkscape:window-x="0"
     inkscape:window-y="27"
     inkscape:window-maximized="0"
     inkscape:current-layer="svg4003" />
  <g
     style="fill-opacity:1;fill-rule:evenodd;stroke:#000000;stroke-width:1.5;stroke-linecap:round;stroke-linejoin:round;stroke-miterlimit:4;stroke-opacity:1;stroke-dasharray:none"
     id="g4005"
     transform="matrix(1.67,0,0,1.67,-0.075,-2.58)">
    <path
       d="m 9,39 27,0 0,-3 -27,0 0,3 z"
       style="stroke-linecap:butt"
       id="path4007"
       inkscape:connector-curvature="0" />
    <path
       d="m 12.5,32 1.5,-2.5 17,0 1.5,2.5 -20,0 z"
       style="stroke-linecap:butt"
       id="path4009"
       inkscape:connector-curvature="0" />
    <path
       d="m 12,36 0,-4 21,0 0,4 -21,0 z"
       style="stroke-linecap:butt"
       id="path4011"
       inkscape:connector-curvature="0" />
    <path
       d="m 14,29.5 0,-13 17,0 0,13 -17,0 z"
       style="stroke-linecap:butt;stroke-linejoin:miter"
       id="path4013"
       inkscape:connector-curvature="0" />
    <path
       d="m 14,16.5 -3,-2.5 23,0 -3,2.5 -17,0 z"
       style="stroke-linecap:butt"
       id="path4015"
       inkscape:connector-curvature="0" />
    <path
       d="m 11,14 0,-5 4,0 0,2 5,0 0,-2 5,0 0,2 5,0 0,-2 4,0 0,5 -23,0 z"
       style="stroke-linecap:butt"
       id="path4017"
       inkscape:connector-curvature="0" />
    <path
       d="m 12,35.5 21,0 0,0"
       style="fill:none;stroke:#ffffff;stroke-width:1;stroke-linejoin:miter"
       id="path4019"
       inkscape:connector-curvature="0" />
    <path
       d="m 13,31.5 19,0"
       style="fill:none;stroke:#ffffff;stroke-width:1;stroke-linejoin:miter"
       id="path4021"
       inkscape:connector-curvature="0" />
    <path
       d="m 14,29.5 17,0"
       style="fill:none;stroke:#ffffff;stroke-width:1;stroke-linejoin:miter"
       id="path4023"
       inkscape:connector-curvature="0" />
    <path
       d="m 14,16.5 17,0"
       style="fill:none;stroke:#ffffff;stroke-width:1;stroke-linejoin:miter"
       id="path4025"
       inkscape:connector-curvature="0" />
    <path
       d="m 11,14 23,0"
       style="fill:none;stroke:#ffffff;stroke-width:1;stroke-linejoin:miter"
       id="path4027"
       inkscape:connector-curvature="0" />
  </g>
</svg>
